<svg xmlns="http://www.w3.org/2000/svg" width="70" height="40" viewBox="0 0 70 40">
  <path fill="#fff" d="M0 0h70v40H0z"/>
  <path d="M61.07 19.97H51.8a.2.2 0 01-.2-.2v-3.74c0-.11.09-.2.2-.2h9.26a.2.2 0 01.2.2v3.74a.2.2 0 01-.2.2zm.13 14.6a2.23 2.23 0 01-2.23 2.23H10.86a2.23 2.23 0 01-2.23-2.23V5.43a2.23 2.23 0 012.23-2.23h48.11a2.23 2.23 0 012.23 2.23v29.14z" fill="#016fd0"/>
  <path d="M58.97 36.8H10.86a2.23 2.23 0 01-2.23-2.23V19.77H18.2a4.15 4.15 0 014.15 4.14v.01a4.15 4.15 0 01-4.15 4.15h-2.77v1.38H18.2c3.05 0 5.53-2.47 5.53-5.53a5.52 5.52 0 00-5.53-5.52H8.63v16.17a2.23 2.23 0 002.23 2.23h48.11a2.23 2.23 0 002.23-2.23V19.77H29.1v1.38h30.73v15.65z" fill="#016fd0"/>
  <path d="M31.93 16.03H28.1v1.38h3.84v-1.38zm-6.57 0h-3.69v1.38h3.69v-1.38zm-10.54 0h-.93a.56.56 0 00-.55.55v.28c0 .3.25.55.55.55h.93a.56.56 0 00.55-.55v-.28a.56.56 0 00-.55-.55zm5.53 0H15.9v1.38h4.45v-1.38zm14.51 0h-5.68v1.38h5.68v-1.38zm7.26 0h-4.45v1.38h4.45v-1.38zm-14.2 12.44h3.83v-5.53h-3.83v5.53zm14.2-5.53h-3.83v5.53h3.83v-5.53zm-7.26 0h-4.14v1.38h4.14v-1.38zm0 2.76h-4.14v1.38h4.14v-1.38zM28.1 24.07v1.38h1.38v-1.38H28.1z" fill="#016fd0"/>
  <path d="M33.16 28.45h-9.36v1.38h9.36v-1.38zm-14.27-5.53h-6.9v5.53h6.9v-5.53zm25.12 0h-6.9v5.53h6.9v-5.53zM47 24.3h-3.83v.83H47v-.83zm-25.12 0h-3.83v.83h3.83v-.83zm-8.29-8.27h-.93a.28.28 0 01-.27-.28v-.55c0-.15.12-.27.27-.27h.93c.15 0 .28.12.28.27v.55a.28.28 0 01-.28.28z" fill="#fff"/>
</svg>
