<svg xmlns="http://www.w3.org/2000/svg" width="70" height="40" viewBox="0 0 70 40">
  <path fill="#fff" d="M0 0h70v40H0z"/>
  <path d="M51.89 22.93v-1.16h-1.61l.92 1.16zm-2.48-1.16L47.69 25h-.74l-1.72-3.23h.8l1.16 2.3 1.16-2.3h.06zM52 21.77h.74L51.37 25h-.8l1.43-3.23zm-19 1.84L31.68 25h-.68L29.75 23v2h-.74v-3.23h1l1.12 1.84 1.13-1.84h1V25h-.74l-.03-1.39zm38.71-1.84h.74L70.88 25h-.8l-.3-.67h-1.64l-.3.67h-.8l1.37-3.23zm-.18 1.85l-.49-1.1-.49 1.1h.98zm-27.6-.01c0-1.16 1.34-1.2 1.92-.67l-.34.61a1.14 1.14 0 00-.74-.25c-.24 0-.55.09-.55.31 0 .55 1.59.18 1.59 1.35 0 .61-.61 1.04-1.28 1.04-.74 0-1.23-.31-1.48-.61l.37-.56c.21.24.61.49.98.49.25 0 .61-.09.61-.37 0-.58-1.58-.18-1.58-1.34zm4.45-.01c0-1.16 1.34-1.2 1.92-.67l-.34.61a1.14 1.14 0 00-.74-.25c-.24 0-.55.09-.55.31 0 .55 1.59.18 1.59 1.35 0 .61-.61 1.04-1.29 1.04-.73 0-1.22-.31-1.47-.61l.37-.56c.21.24.61.49.98.49.24 0 .61-.09.61-.37 0-.58-1.58-.18-1.58-1.34zm11.61-.14c0-.46.37-.64.86-.64h.92v-.49c0-.27-.28-.3-.43-.3a.82.82 0 00-.61.25l-.4-.55c.31-.3.74-.43 1.16-.43.61 0 1.22.27 1.22 1.07v2.14h-.67v-.22a1.1 1.1 0 01-.86.28c-.55 0-1.19-.21-1.19-.92v-.19zm1.19.68c.31 0 .59-.12.59-.46v-.18h-.8c-.18 0-.34.09-.34.31v.09c0 .21.15.24.55.24zm-25.1-.68c0-.46.37-.64.86-.64h.92v-.49c0-.27-.28-.3-.43-.3a.82.82 0 00-.61.25l-.4-.55c.31-.3.74-.43 1.16-.43.61 0 1.22.27 1.22 1.07v2.14h-.67v-.22a1.1 1.1 0 01-.86.28c-.55 0-1.19-.21-1.19-.92v-.19zm1.19.68c.31 0 .59-.12.59-.46v-.18h-.8c-.18 0-.34.09-.34.31v.09c0 .21.15.24.55.24zm-5.97-1.95h.74L35.09 25h-.8l-.3-.67h-1.64l-.3.67h-.79l1.37-3.23zm-.18 1.84l-.49-1.1-.49 1.1h.98zm8.05-1.16h-.83V23c0 .37.12.55.43.55.12 0 .31-.06.4-.15l.34.61a1.28 1.28 0 01-.92.34c-.8 0-1.19-.52-1.19-1.35v-.37h-.55v-.64h.55v-1.01h.94v1.01h.83v.64zm5.47-.03h-.83V23c0 .37.12.55.43.55.12 0 .31-.06.4-.15l.34.61a1.28 1.28 0 01-.92.34c-.8 0-1.19-.52-1.19-1.35v-.37h-.55v-.64h.55v-1.01h.94v1.01h.83v.64zm-11.24-.61c.55 0 .98.25 1.22.67l-.64.34c-.12-.24-.31-.4-.55-.4-.46 0-.74.34-.74.95s.28.95.74.95c.24 0 .43-.15.55-.4l.64.34a1.38 1.38 0 01-1.22.67c-.89 0-1.65-.58-1.65-1.57s.76-1.55 1.65-1.55zm14.93.49a.4.4 0 01.4-.4.4.4 0 010 .8.4.4 0 01-.4-.4zm.7 0c0-.16-.13-.3-.3-.3s-.3.13-.3.3c0 .16.13.3.3.3s.3-.14.3-.3zm-.09.19h-.09l-.07-.11h-.06v.11h-.07v-.38h.15c.08 0 .13.03.13.13 0 .07-.04.12-.1.13l.11.12zm-.15-.31c.03 0 .07-.01.07-.06s-.04-.06-.07-.06h-.07v.12h.07z" fill="#231f20"/>
  <g>
    <path d="M23.1 21.37a.93.93 0 100-1.86.93.93 0 000 1.86z" fill="#ff5f00"/>
    <path d="M23.58 19.13a.93.93 0 010 .93 1.23 1.23 0 00-.47-.09c-.26 0-.5.1-.68.27a.93.93 0 010-.93c.18-.17.42-.27.68-.27.16 0 .32.03.47.09z" fill="#eb001b"/>
    <path d="M23.58 20.06c.18.17.29.41.29.67 0 .51-.42.93-.93.93a.94.94 0 01-.68-.27c.18.17.42.27.68.27.51 0 .93-.42.93-.93a.94.94 0 00-.29-.67z" fill="#f79e1b"/>
    <path d="M41.09 11.97H28.91v16.06h12.18V11.97z" fill="#ff5f00"/>
    <path d="M29.5 20a10.18 10.18 0 013.9-8.03c-4.17-3.28-10.22-2.56-13.5 1.6a9.67 9.67 0 0013.5 13.9A10.18 10.18 0 0129.5 20z" fill="#eb001b"/>
    <path d="M49.1 20c0 5.62-4.55 10.17-10.17 10.17a10.16 10.16 0 01-5.53-1.63c4.17-3.27 4.91-9.33 1.63-13.5a9.7 9.7 0 00-1.63-1.63 10.18 10.18 0 015.53-1.64c5.62 0 10.17 4.56 10.17 10.17z" fill="#f79e1b"/>
  </g>
</svg>
