<svg xmlns="http://www.w3.org/2000/svg" width="70" height="40" viewBox="0 0 70 40">
  <path fill="#fff" d="M0 0h70v40H0z"/>
  <path d="M49.38 13.84h-5c-.78 0-1.82.63-2.2 1.4l-6.33 15.42h4.53s.73-1.93.89-2.35h5.42c.13.56.51 2.35.51 2.35h4l-3.52-16.46a.85.85 0 00-.93-.36h1.63zm-6.82 11.01c.35-.9 1.69-4.35 1.69-4.35-.2.04-.55-1.42-.68-1.73l.36 1.58s.81 3.72.98 4.5h-2.35zm-8.64-6.54c.04-1.53-1.49-2.18-2.7-2.64-1.07-.35-1.76-.58-1.76-1 0-.33.38-.69 1.2-.69a4.29 4.29 0 012.24.42l.49-2.32a7.1 7.1 0 00-2.68-.5c-2.82 0-4.8 1.5-4.82 3.63-.02 1.58 1.42 2.46 2.5 3 1.1.54 1.48.89 1.47 1.36-.01.74-.88 1.07-1.7 1.08-1.4.01-2.24-.39-2.9-.69l-.51 2.38s1.04.48 2.77.48c3.28 0 5.36-1.47 5.4-3.8zm13.33-4.5l-3.5-.02-2.16 5.33-.91-5.02a.86.86 0 00-.85-.66h-3.25l-.05.29c.68.14 1.43.35 1.9.59.28.13.38.25.48.58l1.6 8.25h4.53l5.43-9.34h-3.22z" fill="#1a1f71"/>
  <path d="M28.33 30.66l.33-2.3c-.5.17-1.25.35-2.13.35-2.88 0-4.88-1.49-4.88-4.27-.02-3.31 2.78-6.53 6.84-6.53.97 0 1.86.2 2.38.4l.36-2.39a8.04 8.04 0 00-3.08-.54c-3.53 0-6.4 1.83-8.49 4.55a9.43 9.43 0 00-1.79 5.5c0 2.38.74 4.3 2.16 5.62 1.28 1.22 3.13 1.84 5.74 1.84 1.36 0 2.92-.28 3.88-.68l-1.32-1.55z" fill="#1a1f71"/>
</svg>
